<?xml version="1.0" standalone="no"?><!DOCTYPE svg PUBLIC "-//W3C//DTD SVG 1.1//EN" "http://www.w3.org/Graphics/SVG/1.1/DTD/svg11.dtd"><svg t="1564556226931" class="icon" viewBox="0 0 1024 1024" version="1.1" xmlns="http://www.w3.org/2000/svg" p-id="3422" xmlns:xlink="http://www.w3.org/1999/xlink" width="48" height="48"><defs><style type="text/css"></style></defs><path d="M739.2 694.4l262.4 262.4c12.8 12.8 12.8 32 0 44.8-12.8 12.8-32 12.8-44.8 0L694.4 739.2c-12.8-12.8-12.8-32 0-44.8 11.2-12.8 32-12.8 44.8 0zM428.8 256v256c0 17.6-14.4 32-32 32s-32-14.4-32-32V256c0-17.6 14.4-32 32-32s32 14.4 32 32z" p-id="3423" fill="#ffffff"></path><path d="M268.8 352h256c17.6 0 32 14.4 32 32s-14.4 32-32 32h-256c-17.6 0-32-14.4-32-32s14.4-32 32-32z" p-id="3424" fill="#ffffff"></path><path d="M385.6 758.4c-99.2 0-193.6-38.4-264-108.8-145.6-145.6-145.6-382.4 0-528 145.6-145.6 382.4-145.6 528 0 145.6 145.6 145.6 382.4 0 528-70.4 70.4-163.2 108.8-264 108.8z m0-681.6c-78.4 0-158.4 30.4-217.6 89.6C48 288 48 484.8 168 604.8c57.6 57.6 136 91.2 217.6 91.2s160-32 217.6-91.2c120-120 120-316.8 0-436.8-59.2-60.8-137.6-91.2-217.6-91.2z" p-id="3425" fill="#ffffff"></path></svg>